<?xml version="1.0" standalone="no"?>
<!DOCTYPE svg PUBLIC "-//W3C//DTD SVG 20010904//EN"
 "http://www.w3.org/TR/2001/REC-SVG-20010904/DTD/svg10.dtd">
<svg version="1.0" xmlns="http://www.w3.org/2000/svg"
 width="800.000000pt" height="800.000000pt" viewBox="0 0 800.000000 800.000000"
 preserveAspectRatio="xMidYMid meet">

<g transform="translate(0.000000,800.000000) scale(0.100000,-0.100000)"
fill="#000000" stroke="none">
<path d="M3085 6498 c9 -24 569 -1473 660 -1710 7 -17 -8 -18 -223 -18 l-230
0 -12 -32 c-27 -77 -160 -461 -160 -464 0 -2 186 -4 413 -4 l414 0 46 -123
c26 -68 47 -126 47 -130 0 -4 -175 -7 -390 -7 l-390 0 0 -1270 0 -1270 425 0
425 0 0 1260 0 1260 356 0 356 0 -15 -23 c-8 -12 -139 -221 -291 -463 l-276
-441 0 -618 0 -618 735 1089 736 1089 -405 3 -404 2 -408 1023 c-223 562 -449
1129 -501 1260 l-95 237 -414 0 -413 0 14 -32z"/>
<path d="M2524 5198 l-449 -1203 404 -3 c222 -1 406 0 409 2 8 8 462 1396 462
1412 0 21 -362 994 -370 994 -4 0 -209 -541 -456 -1202z"/>
<path d="M4803 2435 l-251 -377 140 -286 c76 -158 143 -290 147 -295 4 -4 211
-6 459 -5 l452 3 -333 640 c-184 352 -340 653 -348 668 l-15 28 -251 -376z"/>
</g>
</svg>
