<?xml version="1.0" standalone="no"?>
<!DOCTYPE svg PUBLIC "-//W3C//DTD SVG 20010904//EN"
 "http://www.w3.org/TR/2001/REC-SVG-20010904/DTD/svg10.dtd">
<svg version="1.0" xmlns="http://www.w3.org/2000/svg"
 width="166.000000pt" height="114.000000pt" viewBox="0 0 166.000000 114.000000"
 preserveAspectRatio="xMidYMid meet">

<g transform="translate(0.000000,114.000000) scale(0.100000,-0.100000)"
fill="#000000" stroke="none">
<path d="M572 886 c-29 -28 -77 -95 -124 -173 -91 -153 -318 -558 -318 -567 0
-3 78 -6 174 -6 l173 0 144 258 c132 237 182 312 207 312 23 0 74 -56 121
-133 27 -45 47 -85 45 -89 -3 -5 -63 -8 -135 -8 l-129 0 0 -99 0 -99 197 -7
c236 -9 308 -3 379 29 43 20 58 33 70 61 15 37 11 74 -12 113 -14 21 -21 22
-127 22 l-112 0 81 53 81 52 -20 31 c-48 72 -146 116 -267 119 -80 2 -89 4
-154 43 -37 23 -70 42 -72 42 -2 0 -34 19 -71 41 -38 23 -71 43 -75 46 -4 2
-29 -16 -56 -41z"/>
<path d="M1150 228 c0 -8 12 -30 26 -51 l26 -38 101 7 c90 6 107 10 149 38 26
17 46 36 44 41 -1 6 -71 11 -174 13 -135 2 -172 0 -172 -10z"/>
</g>
</svg>
